<?xml version="1.0" encoding="UTF-8"?>
<!-- Generated by Pixelmator Pro 3.6.17 -->
<svg width="24" height="24" viewBox="0 0 24 24" xmlns="http://www.w3.org/2000/svg">
    <g id="telegram">
        <linearGradient id="linearGradient1" x1="12" y1="24" x2="12" y2="0" gradientUnits="userSpaceOnUse">
            <stop offset="1e-05" stop-color="#1d93d2" stop-opacity="1"/>
            <stop offset="1" stop-color="#38b0e3" stop-opacity="1"/>
        </linearGradient>
        <path id="Path" fill="url(#linearGradient1)" stroke="none" d="M 24 12 C 24 18.627417 18.627417 24 12 24 C 5.372583 24 -0 18.627417 -0 12 C -0 5.372583 5.372583 0 12 0 C 18.627417 0 24 5.372583 24 12 Z"/>
        <path id="path1" fill="#c8daea" stroke="none" d="M 8.1229 12.8772 L 9.5466 16.817799 C 9.5466 16.817799 9.7246 17.186501 9.9152 17.186501 C 10.1058 17.186501 12.9407 14.2373 12.9407 14.2373 L 16.093201 8.1483 L 8.1737 11.86 Z"/>
        <path id="path2" fill="#a9c6d8" stroke="none" d="M 10.0106 13.8878 L 9.7373 16.7924 C 9.7373 16.7924 9.6229 17.6824 10.5127 16.7924 C 11.4025 15.9024 12.2542 15.2161 12.2542 15.2161"/>
        <path id="path3" fill="#ffffff" stroke="none" d="M 8.1486 13.017799 L 5.22 12.063601 C 5.22 12.063601 4.87 11.9216 4.9827 11.5996 C 5.0059 11.5332 5.0527 11.4767 5.1927 11.3796 C 5.8416 10.927301 17.2033 6.843601 17.2033 6.843601 C 17.2033 6.843601 17.524099 6.7355 17.713299 6.8074 C 17.808592 6.836899 17.880619 6.915421 17.9018 7.012899 C 17.922243 7.097467 17.930792 7.184471 17.9272 7.271399 C 17.9263 7.3466 17.9172 7.4163 17.910299 7.5256 C 17.841099 8.642099 15.7703 16.974899 15.7703 16.974899 C 15.7703 16.974899 15.6464 17.4625 15.202499 17.4792 C 14.982089 17.48632 14.76824 17.403597 14.610001 17.25 C 13.738901 16.5007 10.7281 14.4773 10.062799 14.0323 C 10.032438 14.01161 10.012525 13.978786 10.0082 13.942301 C 9.998899 13.895399 10.0499 13.8373 10.0499 13.8373 C 10.0499 13.8373 15.2925 9.177301 15.432001 8.6881 C 15.4428 8.6502 15.402 8.6315 15.3472 8.6481 C 14.999001 8.776199 8.9628 12.588099 8.2966 13.0088 C 8.248645 13.02331 8.19796 13.026392 8.1486 13.017799 Z"/>
    </g>
</svg>
